<svg width="11" height="6" viewBox="0 0 11 6" fill="none" xmlns="http://www.w3.org/2000/svg">
<path d="M4.477 4.519L4.083 5.989L3.1175 5.73L3.511 4.2605C2.92198 4.04326 2.37456 3.72668 1.8925 3.3245L0.816 4.4015L0.1085 3.694L1.1855 2.6175C0.577538 1.88938 0.169044 1.01588 0 0.0825L0.45 0C1.89461 1.04159 3.63104 1.6008 5.412 1.598C7.264 1.598 8.9775 1.0055 10.374 0L10.824 0.082C10.6552 1.01551 10.2469 1.88918 9.639 2.6175L10.7155 3.694L10.008 4.4015L8.9315 3.3245C8.44944 3.72668 7.90202 4.04326 7.313 4.2605L7.7065 5.7305L6.741 5.989L6.347 4.519C5.72818 4.62504 5.09582 4.62504 4.477 4.519Z" fill="#2C459E"/>
</svg>
