<svg width="12" height="10" viewBox="0 0 12 10" fill="none" xmlns="http://www.w3.org/2000/svg">
<path d="M0.590454 5C1.06045 2.44 3.30395 0.5 5.99995 0.5C8.69595 0.5 10.939 2.44 11.4095 5C10.9395 7.56 8.69595 9.5 5.99995 9.5C3.30395 9.5 1.06095 7.56 0.590454 5ZM5.99995 7.5C6.663 7.5 7.29888 7.23661 7.76772 6.76777C8.23656 6.29893 8.49995 5.66304 8.49995 5C8.49995 4.33696 8.23656 3.70107 7.76772 3.23223C7.29888 2.76339 6.663 2.5 5.99995 2.5C5.33691 2.5 4.70103 2.76339 4.23219 3.23223C3.76335 3.70107 3.49995 4.33696 3.49995 5C3.49995 5.66304 3.76335 6.29893 4.23219 6.76777C4.70103 7.23661 5.33691 7.5 5.99995 7.5ZM5.99995 6.5C5.60213 6.5 5.2206 6.34196 4.93929 6.06066C4.65799 5.77936 4.49995 5.39782 4.49995 5C4.49995 4.60218 4.65799 4.22064 4.93929 3.93934C5.2206 3.65804 5.60213 3.5 5.99995 3.5C6.39778 3.5 6.77931 3.65804 7.06061 3.93934C7.34192 4.22064 7.49995 4.60218 7.49995 5C7.49995 5.39782 7.34192 5.77936 7.06061 6.06066C6.77931 6.34196 6.39778 6.5 5.99995 6.5Z" fill="#1A2859"/>
</svg>
